<?xml version="1.0" standalone="no"?>
<!DOCTYPE svg PUBLIC "-//W3C//DTD SVG 20010904//EN"
 "http://www.w3.org/TR/2001/REC-SVG-20010904/DTD/svg10.dtd">
<svg version="1.0" xmlns="http://www.w3.org/2000/svg"
 width="142.000000pt" height="125.000000pt" viewBox="0 0 142.000000 125.000000"
 preserveAspectRatio="xMidYMid meet">
<metadata>
Created by potrace 1.10, written by Peter Selinger 2001-2011
</metadata>
<g transform="translate(0.000000,125.000000) scale(0.100000,-0.100000)"
fill="#000000" stroke="none">
<path d="M535 770 c-16 -10 -59 -42 -95 -70 -36 -27 -77 -56 -92 -63 -16 -6
-28 -14 -28 -17 0 -3 21 -17 46 -30 26 -14 71 -54 101 -90 102 -120 139 -142
244 -141 92 0 136 20 200 94 79 90 117 124 163 146 36 17 39 20 21 27 -24 9
-104 64 -162 110 -58 47 -84 56 -118 38 -68 -35 -106 -37 -179 -10 -38 14 -69
26 -70 26 0 0 -14 -9 -31 -20z m90 -35 c67 -21 134 -21 173 -1 44 23 67 20
104 -12 18 -16 49 -39 68 -52 68 -47 70 -40 -42 -155 -87 -89 -111 -108 -152
-120 -110 -33 -146 -18 -280 117 -101 102 -107 110 -90 124 11 7 48 36 84 64
36 27 70 50 75 50 6 0 32 -7 60 -15z"/>
<path d="M618 636 c-35 -10 -83 -56 -59 -56 6 0 11 4 11 8 0 27 163 40 237 19
43 -11 67 -37 35 -37 -9 0 -32 -9 -50 -20 -45 -27 -108 -28 -160 -1 -22 11
-49 21 -59 21 -15 0 -14 -4 7 -23 28 -25 91 -47 138 -47 60 0 152 50 152 82 0
15 -27 38 -62 52 -40 17 -139 18 -190 2z"/>
</g>
</svg>
